<svg version="1.1" viewBox="0.0 0.0 181.06036745406823 578.5459317585302" fill="none" stroke="none" stroke-linecap="square" stroke-miterlimit="10" xmlns:xlink="http://www.w3.org/1999/xlink" xmlns="http://www.w3.org/2000/svg"><clipPath id="p.0"><path d="m0 0l181.06036 0l0 578.54596l-181.06036 0l0 -578.54596z" clip-rule="nonzero"/></clipPath><g clip-path="url(#p.0)"><path fill="#000000" fill-opacity="0.0" d="m0 0l181.06036 0l0 578.54596l-181.06036 0z" fill-rule="evenodd"/><path fill="#0000ff" d="m25.648294 80.14698l0 0c0 -35.83328 29.048613 -64.88189 64.88189 -64.88189l0 0c17.207748 0 33.71071 6.8357515 45.878433 19.003468c12.167709 12.167713 19.003464 28.670677 19.003464 45.87842l0 0c0 35.833282 -29.048615 64.88189 -64.8819 64.88189l0 0c-35.833275 0 -64.88189 -29.048607 -64.88189 -64.88189z" fill-rule="evenodd"/><path fill="#0000ff" d="m45.238846 320.6706l0 0c0 -25.43988 20.277626 -46.06299 45.291336 -46.06299l0 0c12.012009 0 23.532043 4.853058 32.025818 13.491547c8.493774 8.638489 13.265518 20.354797 13.265518 32.57144l0 0c0 25.43991 -20.277618 46.06299 -45.291336 46.06299l0 0c-25.01371 0 -45.291336 -20.623077 -45.291336 -46.06299z" fill-rule="evenodd"/><path fill="#0000ff" d="m56.687664 528.6588l0 0c0 -17.864471 15.1518135 -32.346466 33.842518 -32.346466l0 0c8.975594 0 17.583572 3.407898 23.930275 9.47406c6.3467026 6.0661316 9.912247 14.293549 9.912247 22.872406l0 0c0 17.86444 -15.15181 32.346436 -33.84252 32.346436l0 0c-18.690704 0 -33.842518 -14.481995 -33.842518 -32.346436z" fill-rule="evenodd"/><path fill="#000000" fill-opacity="0.0" d="m90.53018 145.02887l0 351.2756" fill-rule="evenodd"/><path stroke="#0000ff" stroke-width="2.0" stroke-linejoin="round" stroke-linecap="butt" d="m90.53018 145.02887l0 351.2756" fill-rule="evenodd"/></g></svg>